# xmcd
#
# Track frame offsets: 
#        150
#        11927
#        25435
#        37379
#        45351
#        58145
#        69884
#        83002
#        92619
#        104112
#
# Disc length: 1555 seconds
#
# Revision: 0
# Processed by: cddbd v1.5.2PL0 Copyright (c) Steve Scherf et al.
# Submitted via: ExactAudioCopy v0.99pb5
#
DISCID=8506110a
DTITLE=George Jones - The Essential George Jones [CD1]
DYEAR=1900
DGENRE=Country
TTITLE0=White Lightnin'
TTITLE1=Things Have Gone To Pieces
TTITLE2=She Thinks I Still Care
TTITLE3=Yes, I Know Why
TTITLE4=Lifetime To Regret
TTITLE5=Tarnished Angel
TTITLE6=When I Wake Up From Dreaming
TTITLE7=World's Worst Loser
TTITLE8=A House Without Love Is not A Home
TTITLE9=The Selfishness Of A Man
EXTD=
EXTT0=
EXTT1=
EXTT2=
EXTT3=
EXTT4=
EXTT5=
EXTT6=
EXTT7=
EXTT8=
EXTT9=
PLAYORDER=
